<svg width="24" height="25" viewBox="0 0 24 25" fill="none" xmlns="http://www.w3.org/2000/svg">
<g id="carbon:map">
<path id="Vector" d="M12.0002 18.5L7.43272 12.05C6.68511 11.1673 6.20365 10.0904 6.04444 8.94462C5.88522 7.79887 6.05479 6.63147 6.5334 5.57837C7.01201 4.52527 7.77996 3.62981 8.74782 2.99629C9.71567 2.36277 10.8436 2.01726 12.0002 2C13.6035 2.01584 15.1352 2.66645 16.2598 3.80931C17.3844 4.95218 18.0102 6.49415 18.0002 8.0975C18.0008 9.4962 17.5247 10.8533 16.6502 11.945L12.0002 18.5ZM12.0002 3.5C10.7941 3.51385 9.6428 4.00578 8.79908 4.86778C7.95536 5.72977 7.48822 6.89137 7.50022 8.0975C7.50524 9.19837 7.90131 10.2616 8.61772 11.0975L12.0002 15.89L15.4727 11C16.1328 10.1761 16.4949 9.1532 16.5002 8.0975C16.5122 6.89137 16.0451 5.72977 15.2014 4.86778C14.3576 4.00578 13.2063 3.51385 12.0002 3.5Z" fill="#434E61"/>
<path id="Vector_2" d="M12 8.75C12.8284 8.75 13.5 8.07843 13.5 7.25C13.5 6.42157 12.8284 5.75 12 5.75C11.1716 5.75 10.5 6.42157 10.5 7.25C10.5 8.07843 11.1716 8.75 12 8.75Z" fill="#434E61"/>
<path id="Vector_3" d="M21 9.5H19.5V11H21V21.5H3V11H4.5V9.5H3C2.60218 9.5 2.22064 9.65804 1.93934 9.93934C1.65804 10.2206 1.5 10.6022 1.5 11V21.5C1.5 21.8978 1.65804 22.2794 1.93934 22.5607C2.22064 22.842 2.60218 23 3 23H21C21.3978 23 21.7794 22.842 22.0607 22.5607C22.342 22.2794 22.5 21.8978 22.5 21.5V11C22.5 10.6022 22.342 10.2206 22.0607 9.93934C21.7794 9.65804 21.3978 9.5 21 9.5Z" fill="#434E61"/>
</g>
</svg>
