<svg width="24" height="25" viewBox="0 0 24 25" fill="none" xmlns="http://www.w3.org/2000/svg">
<g id="carbon:task-tools" clip-path="url(#clip0_2268_4726)">
<path id="Vector" d="M21.3747 24.5C21.0298 24.501 20.6882 24.4336 20.3696 24.3016C20.0509 24.1697 19.7616 23.9758 19.5185 23.7313L16.4225 20.6353C15.5439 20.8293 14.6288 20.7762 13.7786 20.4819C12.9283 20.1876 12.1762 19.6637 11.6055 18.9681C11.0348 18.2726 10.6679 17.4325 10.5454 16.5412C10.4229 15.6499 10.5496 14.742 10.9115 13.9183L11.3525 12.9133L14.4695 16.0303C14.6122 16.1666 14.802 16.2426 14.9993 16.2426C15.1967 16.2426 15.3865 16.1666 15.5292 16.0303C15.599 15.9607 15.6543 15.8781 15.6921 15.7872C15.7299 15.6962 15.7494 15.5987 15.7495 15.5002C15.7496 15.4017 15.7302 15.3041 15.6925 15.2131C15.6549 15.1221 15.5996 15.0394 15.53 14.9698L12.413 11.852L13.418 11.411C14.2418 11.0494 15.1496 10.9228 16.0409 11.0455C16.9322 11.1681 17.7722 11.5351 18.4677 12.1059C19.1632 12.6766 19.6871 13.4287 19.9814 14.2789C20.2757 15.1291 20.3288 16.0442 20.135 16.9228L23.231 20.0188C23.5981 20.3859 23.8482 20.8536 23.9495 21.3629C24.0508 21.8721 23.9988 22.3999 23.8001 22.8796C23.6014 23.3593 23.2649 23.7692 22.8332 24.0577C22.4015 24.3461 21.8939 24.5001 21.3747 24.5ZM16.8522 18.9433L20.5797 22.6708C20.7939 22.8752 21.0786 22.9893 21.3747 22.9893C21.6708 22.9893 21.9555 22.8752 22.1697 22.6708C22.2743 22.5664 22.3573 22.4424 22.4139 22.306C22.4706 22.1695 22.4997 22.0232 22.4997 21.8754C22.4997 21.7276 22.4706 21.5813 22.4139 21.4448C22.3573 21.3083 22.2743 21.1844 22.1697 21.08L18.443 17.3525L18.584 16.9153C18.7487 16.4089 18.7912 15.8708 18.7079 15.3448C18.6247 14.8189 18.4181 14.3202 18.105 13.8894C17.7919 13.4587 17.3813 13.1083 16.9068 12.8668C16.4322 12.6253 15.9072 12.4996 15.3747 12.5C15.3117 12.5 15.2492 12.5018 15.1872 12.5053L16.5912 13.9093C17.013 14.3312 17.25 14.9034 17.25 15.5C17.25 16.0966 17.013 16.6688 16.5912 17.0908C16.1626 17.5 15.5927 17.7284 15.0001 17.7284C14.4074 17.7284 13.8376 17.5 13.409 17.0908L12.005 15.6868C12.0015 15.7493 11.9997 15.812 11.9997 15.875C11.9993 16.4076 12.125 16.9327 12.3665 17.4073C12.6081 17.882 12.9586 18.2927 13.3894 18.6058C13.8202 18.919 14.319 19.1256 14.845 19.2089C15.371 19.2922 15.9093 19.2498 16.4157 19.085L16.8522 18.9433Z" fill="#434E61"/>
<path id="Vector_2" d="M18.75 4.25H16.5V3.5C16.4988 3.10254 16.3404 2.7217 16.0593 2.44065C15.7783 2.1596 15.3975 2.00119 15 2H9C8.60254 2.00119 8.2217 2.1596 7.94065 2.44065C7.6596 2.7217 7.50119 3.10254 7.5 3.5V4.25H5.25C4.85254 4.25119 4.4717 4.4096 4.19065 4.69065C3.9096 4.9717 3.75119 5.35254 3.75 5.75V21.5C3.75119 21.8975 3.9096 22.2783 4.19065 22.5593C4.4717 22.8404 4.85254 22.9988 5.25 23H10.5V21.5H5.25V5.75H7.5V8H16.5V5.75H18.75V9.5H20.25V5.75C20.2488 5.35254 20.0904 4.9717 19.8093 4.69065C19.5283 4.4096 19.1475 4.25119 18.75 4.25ZM15 6.5H9V3.5H15V6.5Z" fill="#434E61"/>
</g>
<defs>
<clipPath id="clip0_2268_4726">
<rect width="24" height="24" fill="white" transform="translate(0 0.5)"/>
</clipPath>
</defs>
</svg>
