<svg width="36" height="38" viewBox="0 0 36 38" fill="none" xmlns="http://www.w3.org/2000/svg">
<path d="M32.8087 1.43359H3.19594C2.18163 1.43359 1.35938 2.30153 1.35938 3.37219V34.6301C1.35938 35.7008 2.18163 36.5687 3.19594 36.5687H32.8087C33.823 36.5687 34.6453 35.7008 34.6453 34.6301V3.37219C34.6453 2.30153 33.823 1.43359 32.8087 1.43359Z" fill="white"/>
<path d="M24.322 36.5658V22.9601H28.6476L29.2945 17.6579H24.322V14.2735C24.322 12.7387 24.727 11.6907 26.811 11.6907H29.4716V6.94068C28.1833 6.79895 26.8885 6.73156 25.5932 6.73881C21.7626 6.73881 19.1245 9.20287 19.1245 13.748V17.6579H14.7988V22.9601H19.1245V36.5658H24.322Z" fill="#242424"/>
</svg>
