<svg width="50" height="50" viewBox="0 0 50 50" fill="none" xmlns="http://www.w3.org/2000/svg">
<path d="M47.0595 15.841C46.8052 14.9047 46.3039 14.0502 45.6056 13.3631C44.9073 12.676 44.0366 12.1803 43.0808 11.9257C39.5716 11 25.5 11 25.5 11C25.5 11 11.4284 11 7.91922 11.9257C6.96336 12.1803 6.09269 12.676 5.39442 13.3631C4.69615 14.0502 4.19478 14.9047 3.94053 15.841C3 19.2941 3 26.5 3 26.5C3 26.5 3 33.7059 3.94053 37.1598C4.19478 38.096 4.69615 38.9505 5.39442 39.6377C6.09269 40.3248 6.96336 40.8205 7.91922 41.0751C11.4284 42 25.5 42 25.5 42C25.5 42 39.5716 42 43.0808 41.0751C44.0366 40.8205 44.9073 40.3248 45.6056 39.6377C46.3039 38.9505 46.8052 38.096 47.0595 37.1598C48 33.7059 48 26.5 48 26.5C48 26.5 48 19.2941 47.0595 15.841Z" fill="white"/>
<path d="M20 33L32 26.5L20 20V33Z" fill="#242424"/>
</svg>
