<svg width="121" height="18" viewBox="0 0 121 18" fill="none" xmlns="http://www.w3.org/2000/svg">
<g clip-path="url(#clip0_2486_19053)">
<path d="M8.9992 13.695L3.70945 16.656L4.8907 10.71L0.439453 6.594L6.4597 5.88L8.9992 0.375L11.5387 5.88L17.559 6.594L13.1077 10.71L14.289 16.656L8.9992 13.695Z" fill="#3B82F6"/>
</g>
<g clip-path="url(#clip1_2486_19053)">
<path d="M34.9992 13.695L29.7095 16.656L30.8907 10.71L26.4395 6.594L32.4597 5.88L34.9992 0.375L37.5387 5.88L43.559 6.594L39.1077 10.71L40.289 16.656L34.9992 13.695Z" fill="#3B82F6"/>
</g>
<g clip-path="url(#clip2_2486_19053)">
<path d="M60.9992 13.695L55.7095 16.656L56.8907 10.71L52.4395 6.594L58.4597 5.88L60.9992 0.375L63.5387 5.88L69.559 6.594L65.1077 10.71L66.289 16.656L60.9992 13.695Z" fill="#3B82F6"/>
</g>
<g clip-path="url(#clip3_2486_19053)">
<path d="M86.9992 13.695L81.7095 16.656L82.8907 10.71L78.4395 6.594L84.4597 5.88L86.9992 0.375L89.5387 5.88L95.559 6.594L91.1077 10.71L92.289 16.656L86.9992 13.695Z" fill="#3B82F6"/>
</g>
<path d="M112.621 1.40274L114.583 5.53221C114.627 5.63703 114.698 5.72781 114.786 5.79553C114.875 5.86325 114.979 5.90552 115.089 5.91815L119.419 6.5871C119.544 6.6039 119.662 6.65756 119.76 6.7418C119.857 6.82604 119.929 6.93739 119.968 7.06284C120.007 7.18829 120.01 7.32267 119.979 7.45027C119.947 7.57788 119.881 7.69345 119.789 7.78349L116.668 11.0125C116.588 11.0901 116.528 11.1872 116.494 11.2951C116.459 11.4029 116.451 11.518 116.47 11.6299L117.223 16.1711C117.245 16.3016 117.231 16.4358 117.183 16.5585C117.135 16.6813 117.055 16.7875 116.953 16.8653C116.85 16.943 116.728 16.9891 116.601 16.9983C116.475 17.0075 116.348 16.9794 116.236 16.9172L112.337 14.7689C112.238 14.7178 112.128 14.6912 112.017 14.6912C111.905 14.6912 111.796 14.7178 111.696 14.7689L107.798 16.9172C107.685 16.9794 107.559 17.0075 107.432 16.9983C107.305 16.9891 107.184 16.943 107.081 16.8653C106.978 16.7875 106.898 16.6813 106.85 16.5585C106.803 16.4358 106.789 16.3016 106.811 16.1711L107.563 11.5785C107.582 11.4666 107.574 11.3514 107.54 11.2436C107.505 11.1357 107.445 11.0386 107.366 10.961L104.208 7.78349C104.114 7.69099 104.048 7.57222 104.018 7.44157C103.988 7.31092 103.995 7.174 104.038 7.04738C104.081 6.92077 104.159 6.8099 104.261 6.72821C104.363 6.64651 104.486 6.59749 104.615 6.5871L108.945 5.91815C109.054 5.90552 109.158 5.86325 109.247 5.79553C109.336 5.72781 109.406 5.63703 109.451 5.53221L111.412 1.40274C111.466 1.28247 111.551 1.18064 111.658 1.10928C111.765 1.03792 111.89 1 112.017 1C112.144 1 112.268 1.03792 112.375 1.10928C112.482 1.18064 112.568 1.28247 112.621 1.40274Z" stroke="#3B82F6" stroke-linecap="round" stroke-linejoin="round"/>
<defs>
<clipPath id="clip0_2486_19053">
<rect width="18" height="18" fill="white"/>
</clipPath>
<clipPath id="clip1_2486_19053">
<rect width="18" height="18" fill="white" transform="translate(26)"/>
</clipPath>
<clipPath id="clip2_2486_19053">
<rect width="18" height="18" fill="white" transform="translate(52)"/>
</clipPath>
<clipPath id="clip3_2486_19053">
<rect width="18" height="18" fill="white" transform="translate(78)"/>
</clipPath>
</defs>
</svg>
