<svg width="18" height="19" viewBox="0 0 18 19" fill="none" xmlns="http://www.w3.org/2000/svg">
<path id="Vector" d="M4.63914 1.56667C4.43749 1.56667 4.23782 1.60638 4.05152 1.68355C3.86522 1.76072 3.69594 1.87383 3.55335 2.01642C3.41076 2.159 3.29765 2.32828 3.22049 2.51458C3.14332 2.70088 3.1036 2.90056 3.1036 3.10221C3.1036 3.30386 3.14332 3.50354 3.22049 3.68984C3.29765 3.87614 3.41076 4.04542 3.55335 4.188C3.69594 4.33059 3.86522 4.4437 4.05152 4.52087C4.23782 4.59804 4.43749 4.63776 4.63914 4.63776C5.0464 4.63776 5.43697 4.47598 5.72494 4.188C6.01291 3.90003 6.17469 3.50946 6.17469 3.10221C6.17469 2.69496 6.01291 2.30439 5.72494 2.01642C5.43697 1.72845 5.0464 1.56667 4.63914 1.56667ZM2.0799 3.10221C2.0799 2.42346 2.34954 1.7725 2.82949 1.29255C3.30944 0.812602 3.96039 0.542969 4.63914 0.542969C5.3179 0.542969 5.96885 0.812602 6.4488 1.29255C6.92875 1.7725 7.19839 2.42346 7.19839 3.10221C7.19839 3.78096 6.92875 4.43192 6.4488 4.91187C5.96885 5.39182 5.3179 5.66145 4.63914 5.66145C3.96039 5.66145 3.30944 5.39182 2.82949 4.91187C2.34954 4.43192 2.0799 3.78096 2.0799 3.10221ZM0.203125 8.03779C0.203125 7.2905 0.808471 6.68515 1.55577 6.68515H5.37757C5.24814 7.01198 5.17299 7.35777 5.15509 7.70885H1.55577C1.46853 7.70885 1.38486 7.7435 1.32317 7.80519C1.26148 7.86688 1.22682 7.95055 1.22682 8.03779V8.306C1.22682 8.42339 1.22819 9.13383 1.64108 9.80538C1.99596 10.3814 2.70163 11.0058 4.20237 11.1068C3.85533 11.3323 3.58497 11.6579 3.42709 12.0404C2.05875 11.7873 1.23842 11.1041 0.76957 10.3411C0.203125 9.42183 0.203125 8.47184 0.203125 8.30805V8.03779ZM11.4071 6.68515C11.5341 7.00454 11.6119 7.34919 11.6296 7.70885H15.2296C15.4112 7.70885 15.5586 7.85626 15.5586 8.03779V8.306C15.5586 8.3995 15.5572 8.86904 15.3491 9.39453C15.6541 9.56788 15.9394 9.77125 16.2008 10.0006C16.4493 9.47054 16.5795 8.89277 16.5823 8.30737V8.03779C16.5823 7.67905 16.4398 7.335 16.1861 7.08133C15.9324 6.82766 15.5884 6.68515 15.2296 6.68515H11.4071ZM10.9519 7.87946C10.9519 8.39268 10.8011 8.8704 10.5411 9.27169C10.0043 9.54045 9.51875 9.90125 9.10656 10.3377C8.59087 10.4875 8.04114 10.4713 7.53519 10.2913C7.02923 10.1114 6.5927 9.77689 6.28738 9.33514C5.98206 8.89339 5.82343 8.36679 5.83395 7.8299C5.84447 7.29301 6.0236 6.77303 6.34599 6.34358C6.66837 5.91413 7.11768 5.59696 7.63029 5.43699C8.14291 5.27702 8.69285 5.28234 9.20227 5.45221C9.71169 5.62208 10.1548 5.94789 10.4688 6.3835C10.7828 6.81912 10.9518 7.34247 10.9519 7.87946ZM5.30932 11.4624H8.30057C8.12854 11.7879 7.99239 12.1312 7.8945 12.4861H5.30932C5.22208 12.4861 5.13841 12.5208 5.07672 12.5824C5.01503 12.6441 4.98038 12.7278 4.98038 12.815V13.0833C4.98038 13.2006 4.98174 13.9111 5.39463 14.5826C5.76316 15.1811 6.50978 15.8315 8.13404 15.893C8.29306 16.2581 8.49302 16.6007 8.72779 16.9146C8.61859 16.9194 8.50735 16.9221 8.3927 16.9221C6.27296 16.9221 5.11687 16.084 4.52312 15.119C3.95668 14.1984 3.95668 13.2491 3.95668 13.0846V12.815C3.95668 12.0677 4.56203 11.4624 5.30932 11.4624ZM12.1463 1.56667C11.9446 1.56667 11.7449 1.60638 11.5586 1.68355C11.3723 1.76072 11.203 1.87383 11.0605 2.01642C10.9179 2.159 10.8048 2.32828 10.7276 2.51458C10.6504 2.70088 10.6107 2.90056 10.6107 3.10221C10.6107 3.30386 10.6504 3.50354 10.7276 3.68984C10.8048 3.87614 10.9179 4.04542 11.0605 4.188C11.203 4.33059 11.3723 4.4437 11.5586 4.52087C11.7449 4.59804 11.9446 4.63776 12.1463 4.63776C12.5535 4.63776 12.9441 4.47598 13.232 4.188C13.52 3.90003 13.6818 3.50946 13.6818 3.10221C13.6818 2.69496 13.52 2.30439 13.232 2.01642C12.9441 1.72845 12.5535 1.56667 12.1463 1.56667ZM9.58701 3.10221C9.58701 2.42346 9.85664 1.7725 10.3366 1.29255C10.8165 0.812602 11.4675 0.542969 12.1463 0.542969C12.825 0.542969 13.476 0.812602 13.9559 1.29255C14.4359 1.7725 14.7055 2.42346 14.7055 3.10221C14.7055 3.78096 14.4359 4.43192 13.9559 4.91187C13.476 5.39182 12.825 5.66145 12.1463 5.66145C11.4675 5.66145 10.8165 5.39182 10.3366 4.91187C9.85664 4.43192 9.58701 3.78096 9.58701 3.10221ZM6.85715 7.87946C6.85715 8.08111 6.89687 8.28079 6.97404 8.46709C7.05121 8.65339 7.16432 8.82267 7.3069 8.96526C7.44949 9.10784 7.61877 9.22095 7.80507 9.29812C7.99137 9.37529 8.19105 9.41501 8.3927 9.41501C8.59435 9.41501 8.79403 9.37529 8.98033 9.29812C9.16663 9.22095 9.3359 9.10784 9.47849 8.96526C9.62108 8.82267 9.73419 8.65339 9.81136 8.46709C9.88853 8.28079 9.92824 8.08111 9.92824 7.87946C9.92824 7.47221 9.76646 7.08164 9.47849 6.79367C9.19052 6.5057 8.79995 6.34392 8.3927 6.34392C7.98545 6.34392 7.59487 6.5057 7.3069 6.79367C7.01893 7.08164 6.85715 7.47221 6.85715 7.87946ZM17.2647 13.851C17.2647 15.0275 16.7974 16.1558 15.9655 16.9878C15.1335 17.8197 14.0052 18.287 12.8287 18.287C11.6522 18.287 10.5239 17.8197 9.69198 16.9878C8.86006 16.1558 8.3927 15.0275 8.3927 13.851C8.3927 12.6745 8.86006 11.5462 9.69198 10.7143C10.5239 9.88237 11.6522 9.41501 12.8287 9.41501C14.0052 9.41501 15.1335 9.88237 15.9655 10.7143C16.7974 11.5462 17.2647 12.6745 17.2647 13.851ZM13.1699 11.1212C13.1699 11.0307 13.134 10.9439 13.07 10.8799C13.006 10.8159 12.9192 10.7799 12.8287 10.7799C12.7382 10.7799 12.6514 10.8159 12.5874 10.8799C12.5234 10.9439 12.4875 11.0307 12.4875 11.1212V13.5098H10.0989C10.0084 13.5098 9.92156 13.5457 9.85757 13.6097C9.79358 13.6737 9.75763 13.7605 9.75763 13.851C9.75763 13.9415 9.79358 14.0283 9.85757 14.0923C9.92156 14.1563 10.0084 14.1923 10.0989 14.1923H12.4875V16.5809C12.4875 16.6714 12.5234 16.7582 12.5874 16.8222C12.6514 16.8862 12.7382 16.9221 12.8287 16.9221C12.9192 16.9221 13.006 16.8862 13.07 16.8222C13.134 16.7582 13.1699 16.6714 13.1699 16.5809V14.1923H15.5586C15.6491 14.1923 15.7359 14.1563 15.7999 14.0923C15.8639 14.0283 15.8998 13.9415 15.8998 13.851C15.8998 13.7605 15.8639 13.6737 15.7999 13.6097C15.7359 13.5457 15.6491 13.5098 15.5586 13.5098H13.1699V11.1212Z" fill="white"/>
</svg>
